<svg xmlns="http://www.w3.org/2000/svg" width="14.503" height="17.5" viewBox="0 0 14.503 17.5">
  <path id="Vector" d="M9.336,16a2.147,2.147,0,0,1-1.082-.24l-.116-.045a3.265,3.265,0,0,0-1.383-.275,3.764,3.764,0,0,0-1.5.32c-.1.025-.2.057-.3.09a2.221,2.221,0,0,1-.79.151c-1.1,0-1.968-1.109-2.664-2A8.7,8.7,0,0,1,.033,10,5.045,5.045,0,0,1,.679,6.72,3.806,3.806,0,0,1,3.842,4.88a5.064,5.064,0,0,1,1.58.319c.107.034.2.068.3.1a2.981,2.981,0,0,0,1.036.221,3.01,3.01,0,0,0,1.165-.24A5.232,5.232,0,0,1,9.67,4.96,3.682,3.682,0,0,1,12.583,6.4a2.986,2.986,0,0,0-1.735,2.895A3.272,3.272,0,0,0,13,12.16a12.3,12.3,0,0,1-1,1.76l-.114.151C11.241,14.93,10.437,16,9.336,16ZM6.432,3.528c-.059,0-.118,0-.176-.008A2.868,2.868,0,0,1,7.005,1.2,3.847,3.847,0,0,1,9.336,0a3.151,3.151,0,0,1-.749,2.4A2.9,2.9,0,0,1,6.432,3.528Z" transform="translate(0.754 0.75)" stroke="#000" stroke-linecap="round" stroke-linejoin="round" stroke-miterlimit="10" stroke-width="1.5" stroke-dasharray="0 0"/>
</svg>
