<svg xmlns="http://www.w3.org/2000/svg" width="21" height="21" viewBox="0 0 21 21">
  <g id="vuesax_linear_global" data-name="vuesax/linear/global" transform="translate(0.5 0.5)">
    <g id="global" transform="translate(0 0)">
      <path id="Vector" d="M8.333,16.667a8.333,8.333,0,1,1,8.333-8.333A8.333,8.333,0,0,1,8.333,16.667Z" transform="translate(1.667 1.667)" fill="none" stroke="#fff" stroke-linecap="round" stroke-linejoin="round" stroke-width="1.5" stroke-dasharray="0 0"/>
      <path id="Vector-2" data-name="Vector" d="M.385,0h.833a23.686,23.686,0,0,0,0,15H.385" transform="translate(6.281 2.5)" fill="none" stroke="#fff" stroke-linecap="round" stroke-linejoin="round" stroke-width="1.5" stroke-dasharray="0 0"/>
      <path id="Vector-3" data-name="Vector" d="M0,0A23.686,23.686,0,0,1,0,15" transform="translate(12.5 2.5)" fill="none" stroke="#fff" stroke-linecap="round" stroke-linejoin="round" stroke-width="1.5" stroke-dasharray="0 0"/>
      <path id="Vector-4" data-name="Vector" d="M0,.833V0A23.686,23.686,0,0,0,15,0V.833" transform="translate(2.5 12.5)" fill="none" stroke="#fff" stroke-linecap="round" stroke-linejoin="round" stroke-width="1.5" stroke-dasharray="0 0"/>
      <path id="Vector-5" data-name="Vector" d="M0,1.219a23.686,23.686,0,0,1,15,0" transform="translate(2.5 6.281)" fill="none" stroke="#fff" stroke-linecap="round" stroke-linejoin="round" stroke-width="1.5" stroke-dasharray="0 0"/>
      <path id="Vector-6" data-name="Vector" d="M20,0V20H0V0Z" transform="translate(20 20) rotate(180)" fill="none" stroke="#fff" stroke-width="1" opacity="0"/>
    </g>
  </g>
</svg>
