<svg xmlns="http://www.w3.org/2000/svg" width="28" height="28" viewBox="0 0 28 28">
  <g id="Group_48" data-name="Group 48" transform="translate(-1193 -32)">
    <circle id="Ellipse_6" data-name="Ellipse 6" cx="14" cy="14" r="14" transform="translate(1193 32)" fill="#717171"/>
    <g id="vuesax_linear_profile" data-name="vuesax/linear/profile" transform="translate(1196 35)">
      <g id="profile">
        <path id="Vector" d="M3.914,8.131a4.075,4.075,0,1,1,.3,0A1.666,1.666,0,0,0,3.914,8.131Z" transform="translate(6.93 1.833)" fill="#fff"/>
        <path id="Vector-2" data-name="Vector" d="M1.664,6.639a8.952,8.952,0,0,0,9.176,0c2.218-1.485,2.218-3.9,0-5.381a8.994,8.994,0,0,0-9.176,0C-.555,2.743-.555,5.163,1.664,6.639Z" transform="translate(4.9 12.089)" fill="#fff"/>
        <path id="Vector-3" data-name="Vector" d="M22,0V22H0V0Z" transform="translate(22 22) rotate(180)" fill="#fff" opacity="0"/>
      </g>
    </g>
  </g>
</svg>
