<svg xmlns="http://www.w3.org/2000/svg" width="17.5" height="16.5" viewBox="0 0 17.5 16.5">
  <g id="Group_47" data-name="Group 47" transform="translate(-1180.75 -3344.75)">
    <path id="Vector" d="M4,15c-2.4,0-4-1.875-4-4.687V4.688C0,1.875,1.6,0,4,0h8c2.4,0,4,1.875,4,4.688v5.625C16,13.125,14.4,15,12,15Z" transform="translate(1181.5 3345.5)" stroke="#000" stroke-linecap="round" stroke-linejoin="round" stroke-miterlimit="10" stroke-width="1.5" stroke-dasharray="0 0"/>
    <path id="brand_Twitter" data-name="brand / Twitter" d="M8.822,1.265a2.032,2.032,0,0,0,.9-1.117,4.147,4.147,0,0,1-1.3.49A2.064,2.064,0,0,0,6.923,0,2.036,2.036,0,0,0,4.872,2.02a2,2,0,0,0,.053.46A5.856,5.856,0,0,1,.7.37,1.986,1.986,0,0,0,.418,1.385a2.011,2.011,0,0,0,.913,1.681A2.069,2.069,0,0,1,.4,2.813c0,.008,0,.017,0,.025a2.029,2.029,0,0,0,1.646,1.98,2.087,2.087,0,0,1-.927.035,2.05,2.05,0,0,0,1.917,1.4,4.158,4.158,0,0,1-2.548.865A4.232,4.232,0,0,1,0,7.093,5.874,5.874,0,0,0,3.145,8,5.75,5.75,0,0,0,8.982,2.254q0-.131-.006-.261A4.132,4.132,0,0,0,10,.947,4.152,4.152,0,0,1,8.822,1.265Z" transform="translate(1185 3349)" fill="#fff"/>
  </g>
</svg>
